<svg xmlns="http://www.w3.org/2000/svg" viewBox="0 0 200 150" width="200" height="150">
  <rect width="200" height="150" fill="#0b131b" rx="12"/>
  <rect x="2" y="2" width="196" height="146" fill="none" stroke="#00bceb" stroke-width="2" rx="10" opacity="0.4"/>
  <!-- Cisco Bars Logo -->
  <g fill="#00bceb" transform="translate(68, 22)">
    <rect x="0" y="16" width="6" height="18" rx="3"/>
    <rect x="14" y="8" width="6" height="26" rx="3"/>
    <rect x="28" y="0" width="6" height="34" rx="3"/>
    <rect x="42" y="8" width="6" height="26" rx="3"/>
    <rect x="56" y="16" width="6" height="18" rx="3"/>
  </g>
  <text x="100" y="66" fill="#ffffff" font-family="-apple-system, BlinkMacSystemFont, sans-serif" font-weight="700" font-size="14" text-anchor="middle" letter-spacing="1">CISCO</text>
  <!-- Shield Icon -->
  <path d="M100 80 L118 88 V104 C118 116 100 125 100 125 C100 125 82 116 82 104 V88 Z" fill="none" stroke="#68d391" stroke-width="3"/>
  <path d="M94 102 L98 106 L107 97" fill="none" stroke="#68d391" stroke-width="3" stroke-linecap="round" stroke-linejoin="round"/>
  <text x="100" y="140" fill="#a0aec0" font-family="-apple-system, BlinkMacSystemFont, sans-serif" font-weight="600" font-size="9" text-anchor="middle" letter-spacing="0.5">CYBERSECURITY</text>
</svg>
